<svg xmlns="http://www.w3.org/2000/svg" width="4800" height="1369" viewBox="55 25 2490 710" role="img" aria-labelledby="title desc">
  <title id="title">THE WORD</title>
  <desc id="desc">Clean vector tracing of the supplied title artwork and its continuous R flourish.</desc>
  <defs>
    <filter id="shadow" x="-8%" y="-8%" width="116%" height="124%" color-interpolation-filters="sRGB">
      <feDropShadow dx="3" dy="4" stdDeviation="1.25" flood-color="#51454d" flood-opacity="0.42"/>
    </filter>
  </defs>
  <path d="M 2046.00 701.00 C 2043.89 699.85 2040.47 699.07 2037.40 699.04 C 2033.79 699.01 2031.64 698.42 2030.00 697.00 C 2028.73 695.90 2026.93 695.00 2025.99 695.00 C 2024.13 695.00 2015.76 687.88 2006.62 678.52 C 1997.03 668.70 1997.00 668.66 1997.00 664.71 C 1997.00 662.67 1996.10 659.31 1995.00 657.26 L 1993.00 653.53 L 1993.03 646.51 C 1993.06 641.69 1993.67 638.25 1995.00 635.50 C 1996.06 633.30 1996.95 630.53 1996.97 629.35 C 1997.00 626.95 2011.23 613.00 2013.64 613.00 C 2014.43 613.00 2016.84 612.10 2019.00 611.00 L 2022.92 609.00 L 2035.21 609.02 L 2047.50 609.04 L 2050.00 611.00 C 2051.38 612.08 2053.36 612.97 2054.42 612.98 C 2055.48 612.99 2057.13 613.72 2058.10 614.59 C 2059.07 615.47 2061.35 616.93 2063.18 617.84 C 2065.00 618.75 2066.65 620.40 2066.85 621.50 C 2067.04 622.60 2067.99 624.40 2068.96 625.50 C 2069.94 626.60 2071.80 630.54 2073.11 634.27 L 2075.49 641.03 L 2074.00 643.69 C 2073.17 645.16 2071.30 646.68 2069.83 647.07 C 2068.37 647.46 2065.58 649.05 2063.64 650.59 L 2060.12 653.40 L 2057.90 660.30 L 2055.69 667.20 L 2057.34 670.00 C 2058.25 671.55 2059.02 673.41 2059.04 674.15 C 2059.09 676.16 2063.01 680.37 2067.12 682.83 L 2070.74 685.00 L 2080.13 685.00 L 2089.53 685.00 L 2093.26 683.00 C 2095.31 681.90 2098.30 681.00 2099.91 681.00 C 2105.55 681.00 2122.41 665.35 2126.55 656.27 C 2127.99 653.10 2130.03 648.84 2131.09 646.80 C 2132.14 644.77 2133.00 642.24 2133.00 641.17 C 2133.00 640.11 2133.61 638.74 2134.36 638.12 C 2135.13 637.48 2135.96 634.02 2136.29 630.07 C 2136.61 626.27 2137.58 621.79 2138.44 620.12 L 2140.00 617.10 L 2140.00 606.50 C 2140.00 598.98 2139.56 595.05 2138.48 592.97 C 2137.65 591.35 2136.70 587.89 2136.36 585.27 C 2136.03 582.65 2135.14 579.50 2134.38 578.29 C 2133.62 577.07 2133.00 575.44 2133.00 574.67 C 2133.00 573.90 2132.10 572.13 2131.00 570.73 C 2129.90 569.33 2129.00 567.53 2129.00 566.73 C 2129.00 565.93 2128.10 564.13 2127.00 562.73 C 2125.90 561.33 2125.00 559.52 2125.00 558.71 C 2125.00 557.91 2122.30 554.02 2119.00 550.08 C 2115.70 546.14 2113.00 542.54 2113.00 542.08 C 2113.00 540.78 2105.29 533.15 2101.88 531.07 C 2100.19 530.05 2096.50 526.99 2093.66 524.27 C 2090.82 521.56 2086.34 518.08 2083.70 516.54 L 2078.90 513.75 L 2075.49 514.31 C 2071.98 514.88 2060.66 522.67 2053.50 529.44 C 2051.30 531.52 2047.04 534.85 2044.04 536.85 C 2041.04 538.84 2036.52 542.37 2033.99 544.70 C 2031.47 547.02 2027.40 550.37 2024.95 552.15 C 2022.50 553.92 2017.26 557.88 2013.30 560.94 C 2003.14 568.79 1996.13 573.98 1983.50 583.02 C 1977.45 587.35 1971.18 592.02 1969.56 593.40 C 1967.94 594.79 1963.22 597.62 1959.06 599.71 C 1954.90 601.79 1950.02 604.48 1948.21 605.68 C 1946.40 606.89 1941.45 609.50 1937.21 611.50 C 1932.97 613.49 1927.92 615.94 1926.00 616.92 C 1924.08 617.91 1920.75 619.04 1918.60 619.43 C 1916.46 619.83 1913.76 620.74 1912.60 621.48 C 1911.45 622.21 1908.03 623.13 1905.00 623.52 C 1901.97 623.91 1898.24 624.88 1896.69 625.67 C 1887.91 630.17 1841.36 630.09 1834.45 625.56 C 1833.26 624.78 1830.54 623.83 1828.40 623.45 C 1826.25 623.06 1823.83 622.19 1823.00 621.52 C 1822.17 620.84 1818.02 618.63 1813.76 616.61 L 1806.02 612.94 L 1805.44 610.62 C 1805.12 609.34 1802.19 605.66 1798.93 602.43 C 1795.67 599.20 1793.00 595.87 1793.00 595.02 C 1793.00 594.17 1792.10 591.79 1791.00 589.74 L 1789.00 586.01 L 1789.00 570.73 L 1789.00 555.45 L 1790.37 553.47 C 1791.13 552.39 1792.07 549.61 1792.45 547.31 C 1792.84 545.00 1793.77 542.61 1794.51 541.99 C 1795.26 541.37 1796.15 539.61 1796.48 538.07 C 1796.82 536.54 1798.39 534.04 1799.98 532.52 C 1801.56 531.01 1803.42 528.36 1804.10 526.63 C 1805.39 523.41 1827.20 501.00 1829.05 501.00 C 1829.62 501.00 1832.43 499.30 1835.29 497.21 C 1838.16 495.13 1843.42 491.96 1847.00 490.16 C 1850.58 488.36 1855.53 485.75 1858.00 484.34 C 1860.47 482.94 1864.08 481.34 1866.00 480.80 C 1867.92 480.25 1870.17 479.23 1871.00 478.54 C 1871.83 477.84 1874.64 476.99 1877.26 476.65 C 1879.87 476.31 1883.02 475.38 1884.26 474.58 C 1885.49 473.78 1888.97 472.81 1892.00 472.42 C 1895.03 472.04 1898.62 471.16 1900.00 470.47 C 1901.38 469.78 1907.45 468.90 1913.50 468.51 C 1919.55 468.12 1927.57 467.17 1931.32 466.40 C 1939.71 464.68 1964.71 464.52 1968.68 466.16 C 1970.23 466.80 1977.81 467.62 1985.51 467.98 C 1995.59 468.46 2000.22 469.08 2002.01 470.21 C 2003.38 471.07 2007.42 472.08 2011.00 472.45 C 2014.58 472.83 2018.44 473.74 2019.58 474.48 C 2020.73 475.22 2023.88 476.16 2026.58 476.56 C 2029.29 476.96 2032.40 477.87 2033.50 478.57 C 2034.60 479.28 2037.30 480.18 2039.50 480.57 C 2041.70 480.97 2045.07 482.13 2046.99 483.15 C 2048.90 484.17 2051.29 485.00 2052.29 485.00 C 2053.29 485.00 2058.39 487.48 2063.63 490.50 C 2068.87 493.52 2074.04 496.00 2075.11 496.00 C 2077.50 496.00 2080.33 494.24 2089.89 486.77 C 2093.95 483.60 2097.68 481.00 2098.19 481.00 C 2098.69 481.00 2102.35 478.64 2106.30 475.74 C 2112.67 471.10 2116.17 468.75 2123.50 464.21 C 2124.60 463.53 2127.30 462.08 2129.50 460.99 C 2131.70 459.89 2135.30 457.87 2137.50 456.48 C 2139.70 455.10 2142.40 453.51 2143.50 452.96 C 2149.49 449.96 2154.53 446.15 2154.77 444.44 C 2154.96 443.08 2149.52 436.89 2136.70 423.87 C 2126.61 413.62 2116.74 402.82 2114.76 399.87 C 2112.79 396.92 2110.12 393.39 2108.84 392.03 C 2107.55 390.67 2104.40 386.62 2101.84 383.03 C 2099.27 379.44 2096.24 375.30 2095.09 373.84 C 2093.94 372.38 2093.00 370.72 2093.00 370.16 C 2093.00 368.77 2089.44 363.20 2083.77 355.73 C 2081.16 352.30 2078.19 347.69 2077.15 345.48 C 2074.65 340.14 2068.61 330.75 2066.60 329.08 C 2065.72 328.35 2065.00 327.09 2065.00 326.29 C 2065.00 325.48 2064.10 323.67 2063.00 322.27 C 2061.90 320.87 2061.00 318.94 2061.00 317.98 C 2061.00 317.01 2059.44 314.48 2057.54 312.36 C 2055.64 310.24 2053.81 307.31 2053.48 305.85 C 2053.15 304.40 2052.01 302.42 2050.94 301.45 C 2049.87 300.48 2049.00 299.07 2049.00 298.30 C 2049.00 297.54 2048.16 295.70 2047.13 294.21 C 2045.24 291.47 2040.76 284.10 2038.00 279.18 C 2034.77 273.42 2030.41 268.09 2028.50 267.57 C 2025.81 266.84 1998.56 266.85 1996.64 267.58 L 1995.12 268.17 L 1995.05 307.83 L 1994.98 347.50 L 1996.98 350.50 C 1998.09 352.15 1998.99 354.89 1998.99 356.60 C 1999.00 358.30 1999.90 360.73 2001.00 362.00 C 2002.10 363.27 2003.00 365.12 2003.00 366.12 C 2003.00 368.43 2009.67 373.00 2013.04 373.00 C 2015.97 373.00 2027.84 376.76 2029.80 378.30 C 2030.52 378.87 2030.97 380.71 2030.80 382.41 L 2030.50 385.49 L 2027.67 386.83 L 2024.85 388.18 L 1954.69 388.05 C 1916.11 387.98 1883.41 387.65 1882.02 387.32 C 1878.29 386.44 1877.00 385.07 1877.00 382.00 C 1877.00 378.47 1878.60 377.20 1884.44 376.11 C 1887.05 375.62 1889.68 374.72 1890.29 374.11 C 1890.90 373.50 1893.29 373.00 1895.61 373.00 L 1899.82 373.00 L 1902.41 369.92 C 1903.83 368.23 1905.00 365.87 1905.01 364.67 C 1905.01 363.48 1905.91 361.15 1907.00 359.50 C 1908.09 357.85 1908.99 355.44 1908.99 354.15 C 1909.00 352.86 1909.79 349.26 1910.75 346.15 L 1912.50 340.50 L 1912.50 217.00 L 1912.50 93.50 L 1910.75 91.03 C 1909.79 89.67 1909.00 87.59 1909.00 86.41 C 1909.00 85.23 1908.10 83.13 1907.00 81.73 C 1905.90 80.33 1905.00 78.61 1905.00 77.90 C 1905.00 75.50 1899.73 71.00 1896.92 71.00 C 1895.44 71.00 1892.26 70.11 1889.86 69.02 C 1887.46 67.93 1884.33 67.03 1882.90 67.02 C 1877.80 66.98 1875.40 61.76 1878.99 58.51 L 1880.98 56.71 L 1975.37 56.79 L 2069.76 56.87 L 2073.61 58.93 C 2075.81 60.11 2079.33 61.00 2081.79 61.00 C 2084.16 61.00 2087.77 61.87 2089.80 62.93 C 2091.84 63.99 2096.52 66.26 2100.22 67.98 C 2103.92 69.69 2107.21 71.52 2107.53 72.05 C 2107.85 72.57 2108.97 73.00 2110.02 73.00 C 2111.07 73.00 2112.73 73.83 2113.71 74.84 C 2116.80 78.02 2125.93 84.84 2127.95 85.48 C 2129.01 85.82 2130.37 87.59 2130.97 89.42 C 2131.58 91.25 2133.78 94.60 2135.87 96.86 C 2137.96 99.13 2140.54 102.67 2141.59 104.74 C 2142.64 106.81 2144.29 109.09 2145.25 109.81 C 2146.21 110.53 2147.02 112.33 2147.03 113.81 C 2147.05 115.29 2147.94 118.30 2149.00 120.50 C 2150.06 122.70 2150.95 126.53 2150.97 129.00 C 2150.98 131.48 2151.90 136.65 2153.00 140.50 C 2155.38 148.81 2155.55 159.81 2153.40 165.50 C 2152.57 167.70 2151.54 173.66 2151.11 178.74 C 2150.58 185.09 2149.81 188.55 2148.67 189.82 C 2147.75 190.83 2147.00 192.75 2146.99 194.08 C 2146.99 195.41 2146.09 197.85 2145.00 199.50 C 2143.91 201.15 2143.01 203.25 2143.01 204.16 C 2143.00 205.07 2141.18 208.12 2138.96 210.93 C 2136.74 213.74 2133.86 218.04 2132.56 220.48 C 2131.26 222.92 2126.55 228.38 2122.08 232.60 C 2114.03 240.22 2111.70 244.10 2113.87 246.27 C 2114.49 246.89 2115.00 248.15 2115.00 249.07 C 2115.00 249.98 2115.90 251.87 2117.00 253.27 C 2118.10 254.67 2119.00 256.49 2119.00 257.31 C 2119.00 258.13 2120.80 261.19 2123.00 264.12 C 2125.20 267.05 2127.00 270.26 2127.00 271.25 C 2127.00 272.25 2127.66 273.32 2128.46 273.62 C 2129.27 273.93 2130.22 275.16 2130.57 276.34 C 2131.46 279.31 2139.96 293.72 2141.64 295.11 C 2142.39 295.74 2143.00 296.75 2143.00 297.37 C 2143.00 297.99 2144.80 301.20 2147.00 304.50 C 2149.20 307.80 2151.00 311.05 2151.00 311.71 C 2151.00 312.38 2151.90 313.41 2153.00 314.00 C 2154.12 314.60 2155.00 316.09 2155.00 317.40 C 2155.00 318.68 2155.81 320.80 2156.79 322.12 C 2157.77 323.43 2159.13 325.62 2159.80 327.00 C 2160.47 328.38 2161.91 330.85 2163.00 332.50 C 2164.08 334.15 2165.45 336.60 2166.03 337.94 C 2166.62 339.28 2167.94 340.97 2168.97 341.69 C 2170.00 342.41 2171.11 344.24 2171.45 345.75 C 2171.78 347.26 2173.61 350.48 2175.52 352.89 C 2177.44 355.31 2179.00 358.05 2179.00 358.99 C 2179.00 359.92 2179.90 361.50 2181.00 362.50 C 2182.10 363.50 2183.00 365.11 2183.00 366.09 C 2183.00 367.08 2184.80 369.96 2187.00 372.50 C 2189.20 375.04 2191.00 377.89 2191.00 378.84 C 2191.00 379.78 2191.90 381.33 2193.00 382.27 C 2194.10 383.21 2195.00 385.04 2195.00 386.34 C 2195.00 387.63 2195.90 389.50 2197.00 390.50 C 2198.10 391.50 2199.00 393.05 2199.00 393.95 C 2199.00 394.84 2200.80 397.57 2203.00 400.00 C 2205.20 402.43 2207.00 405.16 2207.00 406.06 C 2207.00 406.96 2207.83 408.65 2208.85 409.83 C 2209.87 411.00 2211.78 413.99 2213.09 416.47 C 2214.41 418.94 2215.94 421.14 2216.49 421.35 C 2217.05 421.56 2226.05 421.07 2236.50 420.25 C 2259.68 418.44 2269.40 418.38 2292.00 419.95 L 2309.50 421.16 L 2320.00 425.39 C 2325.78 427.71 2332.48 430.94 2334.89 432.56 C 2337.30 434.18 2340.79 436.29 2342.64 437.26 C 2344.49 438.22 2346.00 439.40 2346.00 439.87 C 2346.00 440.34 2347.12 442.37 2348.48 444.38 C 2349.88 446.44 2351.38 450.65 2351.93 454.02 C 2352.46 457.32 2353.12 460.39 2353.40 460.84 C 2353.68 461.29 2353.03 464.60 2351.95 468.20 C 2347.98 481.41 2332.44 493.40 2316.00 495.91 C 2312.43 496.46 2306.80 497.38 2303.50 497.96 C 2297.62 498.98 2292.95 498.52 2282.88 495.93 C 2280.90 495.42 2273.99 495.00 2267.54 495.00 L 2255.82 495.00 L 2253.27 493.00 C 2251.51 491.61 2249.22 491.00 2245.77 491.00 C 2242.33 491.00 2240.04 490.39 2238.27 489.00 C 2236.60 487.68 2234.22 487.00 2231.29 487.00 L 2226.85 487.00 L 2220.00 483.00 C 2216.23 480.80 2212.55 479.00 2211.83 478.99 C 2211.10 478.99 2209.15 478.09 2207.50 477.00 C 2205.85 475.91 2203.67 475.01 2202.66 475.01 C 2201.64 475.00 2199.67 474.10 2198.27 473.00 C 2196.87 471.90 2195.17 471.00 2194.49 471.00 C 2193.80 471.00 2190.73 469.09 2187.66 466.75 C 2179.42 460.48 2171.92 455.93 2168.76 455.30 C 2166.02 454.75 2153.87 459.78 2152.47 462.05 C 2152.15 462.57 2151.07 463.00 2150.08 463.00 C 2149.08 463.00 2147.18 463.86 2145.84 464.91 C 2144.51 465.96 2140.58 468.32 2137.11 470.16 C 2129.35 474.28 2129.11 474.42 2120.50 480.26 C 2116.65 482.86 2112.38 485.76 2111.00 486.69 C 2109.62 487.62 2105.35 490.66 2101.50 493.45 C 2097.65 496.24 2093.63 499.00 2092.57 499.58 C 2091.50 500.16 2090.17 501.37 2089.61 502.26 L 2088.58 503.88 L 2091.54 506.18 C 2103.26 515.29 2129.62 541.90 2131.29 546.31 C 2131.73 547.45 2133.64 550.29 2135.54 552.61 C 2137.44 554.94 2139.00 557.44 2139.01 558.17 C 2139.01 558.90 2139.91 560.85 2141.00 562.50 C 2142.09 564.15 2142.99 566.26 2142.99 567.20 C 2143.00 568.13 2144.12 571.01 2145.50 573.60 C 2146.88 576.18 2148.00 579.60 2148.00 581.18 C 2148.00 582.77 2148.72 585.17 2149.60 586.51 L 2151.19 588.95 L 2151.64 603.22 L 2152.09 617.50 L 2150.48 623.00 C 2149.60 626.02 2148.46 631.07 2147.96 634.22 C 2147.45 637.37 2146.13 641.63 2145.02 643.71 C 2143.91 645.78 2143.00 648.29 2143.00 649.29 C 2143.00 650.29 2142.02 652.99 2140.83 655.30 C 2138.75 659.33 2138.24 660.31 2135.34 666.05 C 2133.84 669.01 2120.35 682.27 2114.50 686.53 C 2112.30 688.13 2109.02 690.69 2107.22 692.22 C 2105.41 693.75 2102.93 695.00 2101.72 695.01 C 2100.50 695.01 2098.15 695.91 2096.50 697.00 C 2094.53 698.30 2091.78 699.00 2088.50 699.02 C 2085.71 699.03 2081.57 699.92 2079.14 701.02 L 2074.78 703.00 L 2062.14 702.96 L 2049.50 702.92 L 2046.00 701.00 Z M 1890.55 614.54 C 1892.28 613.82 1895.68 612.90 1898.10 612.49 C 1900.52 612.09 1903.72 611.14 1905.20 610.38 C 1906.69 609.62 1908.94 609.00 1910.22 609.00 C 1911.49 609.00 1914.21 608.10 1916.26 607.00 C 1918.31 605.90 1920.69 605.00 1921.55 605.00 C 1922.88 605.00 1926.26 603.48 1933.00 599.85 C 1933.83 599.41 1937.65 597.43 1941.50 595.47 C 1950.25 590.99 1958.67 585.73 1973.44 575.50 C 1979.80 571.10 1987.13 566.09 1989.75 564.37 C 1992.36 562.64 1996.23 559.72 1998.35 557.87 C 2000.46 556.01 2004.77 552.70 2007.92 550.50 C 2011.08 548.30 2017.16 543.58 2021.43 540.00 C 2025.71 536.42 2030.01 533.05 2030.98 532.50 C 2031.96 531.95 2035.17 529.38 2038.13 526.78 C 2041.08 524.18 2047.89 518.61 2053.25 514.39 C 2058.61 510.17 2063.00 506.13 2063.00 505.42 C 2063.00 503.72 2058.23 501.06 2047.50 496.79 C 2044.75 495.69 2041.15 494.17 2039.50 493.42 C 2037.85 492.66 2034.47 491.75 2032.00 491.40 C 2029.53 491.05 2026.56 490.18 2025.41 489.46 C 2024.26 488.75 2020.77 487.69 2017.65 487.11 C 2014.54 486.54 2011.21 485.66 2010.25 485.16 C 2009.29 484.66 2006.26 483.93 2003.51 483.53 C 2000.77 483.13 1997.40 482.23 1996.01 481.52 C 1994.41 480.70 1986.79 479.97 1975.00 479.52 C 1964.83 479.13 1956.21 478.63 1955.84 478.40 C 1954.66 477.67 1914.61 480.14 1912.92 481.05 C 1912.01 481.53 1907.05 482.43 1901.88 483.04 C 1896.72 483.66 1891.60 484.73 1890.50 485.42 C 1889.40 486.12 1886.53 487.00 1884.12 487.38 C 1881.72 487.75 1878.80 488.72 1877.65 489.53 C 1876.50 490.34 1874.19 491.01 1872.53 491.01 C 1870.86 491.02 1868.49 491.59 1867.25 492.26 C 1866.02 492.94 1862.19 495.02 1858.75 496.87 C 1855.31 498.72 1850.25 501.65 1847.50 503.38 C 1844.75 505.11 1841.78 506.97 1840.89 507.51 C 1833.87 511.82 1822.84 521.56 1817.71 528.00 C 1816.17 529.92 1814.37 532.17 1813.70 533.00 C 1810.57 536.88 1803.91 549.25 1803.36 552.20 C 1803.03 554.02 1802.03 556.62 1801.13 558.00 L 1799.51 560.50 L 1799.51 571.00 L 1799.50 581.50 L 1803.34 588.50 C 1807.66 596.39 1812.83 602.24 1818.00 605.11 C 1819.92 606.18 1822.85 607.94 1824.50 609.01 C 1828.90 611.89 1831.79 613.00 1834.84 613.00 C 1836.33 613.00 1838.48 613.65 1839.62 614.45 C 1842.38 616.38 1850.13 616.85 1870.45 616.31 C 1881.24 616.03 1888.54 615.38 1890.55 614.54 Z M 2318.69 482.57 C 2320.24 481.81 2324.01 480.00 2327.08 478.56 C 2330.15 477.11 2334.28 474.26 2336.26 472.22 L 2339.87 468.50 L 2340.53 462.50 L 2341.19 456.50 L 2339.10 453.84 C 2337.94 452.38 2337.00 450.73 2337.00 450.17 C 2337.00 448.53 2324.05 439.96 2320.63 439.33 C 2318.91 439.01 2316.46 438.11 2315.18 437.31 C 2313.90 436.51 2309.18 435.46 2304.68 434.97 C 2300.18 434.48 2294.70 433.55 2292.50 432.90 C 2290.00 432.17 2279.85 431.68 2265.50 431.61 L 2242.50 431.50 L 2235.75 433.49 C 2228.37 435.66 2227.88 436.45 2231.28 440.67 C 2232.53 442.23 2234.89 445.50 2236.53 447.94 C 2242.15 456.35 2256.93 469.30 2266.50 474.22 C 2269.25 475.63 2273.36 477.74 2275.64 478.89 C 2277.91 480.05 2281.30 481.00 2283.16 481.00 C 2285.03 481.00 2287.44 481.62 2288.53 482.38 C 2289.61 483.14 2291.40 484.02 2292.50 484.33 C 2296.07 485.36 2315.76 484.03 2318.69 482.57 Z M 1708.00 390.02 C 1705.53 389.56 1702.23 388.70 1700.68 388.10 C 1699.14 387.49 1695.99 387.00 1693.68 386.99 C 1691.19 386.99 1688.29 386.18 1686.50 385.00 C 1684.85 383.91 1682.67 383.01 1681.66 383.01 C 1680.64 383.00 1678.67 382.10 1677.27 381.00 C 1675.87 379.90 1673.39 379.00 1671.76 379.00 C 1670.13 379.00 1667.55 377.99 1666.03 376.75 C 1664.52 375.51 1661.12 373.15 1658.48 371.50 C 1655.85 369.85 1651.41 367.05 1648.64 365.28 C 1641.33 360.64 1613.00 332.25 1613.00 329.58 C 1613.00 328.40 1612.10 326.67 1611.00 325.73 C 1609.90 324.79 1609.00 323.29 1609.00 322.40 C 1609.00 321.51 1607.20 318.63 1605.00 316.00 C 1602.80 313.37 1601.00 310.47 1601.00 309.56 C 1601.00 308.64 1600.10 306.12 1599.00 303.95 C 1593.91 293.90 1593.21 292.29 1592.53 289.18 C 1592.14 287.36 1591.18 284.66 1590.41 283.18 C 1589.64 281.71 1589.01 279.24 1589.01 277.71 C 1589.00 276.18 1588.10 273.16 1587.00 271.00 C 1585.78 268.61 1585.00 265.11 1585.00 262.01 C 1585.00 259.23 1584.10 254.39 1583.00 251.26 L 1581.00 245.57 L 1581.00 219.41 L 1581.00 193.26 L 1583.00 187.00 C 1584.10 183.56 1585.00 179.91 1585.00 178.89 C 1585.00 177.88 1585.90 175.57 1587.00 173.77 C 1588.09 171.97 1588.99 169.02 1589.00 167.21 C 1589.00 165.40 1589.90 162.16 1591.00 160.00 C 1592.10 157.84 1593.00 155.12 1593.00 153.95 C 1593.00 152.77 1593.90 150.67 1595.00 149.27 C 1596.10 147.87 1597.00 145.91 1597.00 144.91 C 1597.00 142.14 1610.42 117.00 1611.90 117.00 C 1612.29 117.00 1613.04 115.84 1613.56 114.41 C 1615.55 108.94 1644.80 79.80 1650.79 77.32 C 1652.36 76.67 1654.22 75.44 1654.94 74.57 C 1655.66 73.71 1656.88 73.00 1657.67 73.00 C 1658.45 73.00 1661.52 71.20 1664.50 69.00 C 1667.59 66.72 1671.04 65.00 1672.55 65.00 C 1674.00 65.00 1676.33 64.10 1677.73 63.00 C 1679.30 61.77 1681.78 61.00 1684.23 61.00 C 1686.67 61.00 1689.16 60.23 1690.73 59.00 C 1692.49 57.62 1694.78 57.00 1698.19 57.00 C 1701.09 57.00 1705.04 56.12 1707.80 54.86 L 1712.50 52.72 L 1729.62 52.79 L 1746.74 52.86 L 1750.61 54.93 C 1752.73 56.07 1756.05 57.00 1757.99 57.01 C 1759.92 57.01 1762.85 57.91 1764.50 59.00 C 1766.15 60.09 1769.08 60.99 1771.00 61.00 C 1772.92 61.01 1775.85 61.91 1777.50 63.00 C 1779.15 64.09 1781.23 64.99 1782.12 64.99 C 1783.00 65.00 1784.87 65.90 1786.27 67.00 C 1787.67 68.10 1789.54 69.00 1790.42 69.00 C 1791.30 69.00 1792.79 69.90 1793.73 71.00 C 1794.67 72.10 1795.91 73.00 1796.47 73.00 C 1797.04 73.00 1799.97 74.80 1803.00 77.00 C 1806.03 79.20 1810.75 82.52 1813.50 84.38 C 1816.25 86.25 1820.33 89.73 1822.58 92.14 C 1824.82 94.54 1828.20 97.86 1830.09 99.52 C 1831.99 101.17 1834.84 104.77 1836.43 107.52 C 1838.02 110.26 1840.66 113.85 1842.28 115.50 C 1843.91 117.15 1845.83 119.89 1846.56 121.58 C 1847.29 123.27 1848.59 125.24 1849.44 125.95 C 1850.30 126.66 1851.00 128.25 1851.00 129.47 C 1851.00 130.69 1851.90 132.73 1853.00 134.00 C 1854.10 135.27 1855.00 137.18 1855.00 138.25 C 1855.00 139.31 1855.90 141.33 1857.00 142.73 C 1858.10 144.13 1859.00 146.00 1859.01 146.88 C 1859.01 147.77 1859.91 149.85 1861.00 151.50 C 1862.09 153.15 1863.01 155.62 1863.03 157.00 C 1863.05 158.38 1863.94 161.30 1865.00 163.50 C 1866.06 165.70 1866.95 169.08 1866.97 171.01 C 1866.98 172.95 1867.90 176.21 1869.00 178.26 L 1871.00 181.99 L 1871.00 189.75 C 1871.00 194.51 1871.77 200.21 1873.00 204.50 C 1874.44 209.53 1875.00 214.49 1875.00 222.16 L 1875.00 232.82 L 1873.01 239.16 C 1871.63 243.56 1871.02 248.34 1871.01 254.79 L 1871.00 264.08 L 1869.00 268.00 C 1867.90 270.16 1867.00 273.67 1867.00 275.81 C 1867.00 278.26 1866.26 280.55 1865.00 282.00 C 1863.83 283.34 1863.00 285.74 1863.00 287.75 C 1863.00 289.67 1862.12 292.30 1861.00 293.73 C 1859.90 295.13 1859.00 297.23 1859.00 298.41 C 1859.00 299.59 1858.10 301.33 1857.00 302.27 C 1855.90 303.21 1855.00 304.89 1855.00 306.01 C 1855.00 308.09 1849.52 318.56 1847.90 319.56 C 1847.41 319.87 1847.00 320.92 1847.00 321.90 C 1847.00 322.89 1846.12 324.49 1845.04 325.47 C 1843.96 326.44 1841.03 330.27 1838.52 333.97 C 1832.12 343.42 1815.13 359.87 1805.00 366.41 C 1800.33 369.43 1794.27 373.50 1791.55 375.45 C 1788.38 377.72 1785.46 379.00 1783.43 379.00 C 1781.69 379.00 1779.13 379.90 1777.73 381.00 C 1776.33 382.10 1774.12 383.00 1772.83 383.00 C 1771.53 383.00 1768.79 383.90 1766.74 385.00 C 1764.69 386.10 1761.54 387.00 1759.75 387.01 C 1757.96 387.01 1755.15 387.78 1753.50 388.72 L 1750.50 390.44 L 1731.50 390.64 C 1721.05 390.75 1710.47 390.47 1708.00 390.02 Z M 2214.87 388.09 C 2207.45 387.68 2202.66 386.96 2201.62 386.10 C 2199.70 384.50 2199.48 379.68 2201.26 378.20 C 2203.50 376.34 2211.36 373.80 2217.00 373.11 C 2224.07 372.24 2227.43 369.94 2229.28 364.70 C 2232.36 356.00 2233.33 353.39 2234.89 349.53 L 2236.50 345.56 L 2236.50 218.89 L 2236.50 92.21 L 2234.75 90.28 C 2233.79 89.21 2233.00 87.44 2233.00 86.33 C 2233.00 85.22 2232.10 83.50 2231.00 82.50 C 2229.90 81.50 2229.00 79.71 2229.00 78.52 C 2229.00 73.72 2221.42 69.49 2210.00 67.92 C 2201.61 66.76 2198.83 63.35 2202.36 58.52 L 2203.72 56.67 L 2286.82 56.86 L 2369.91 57.06 L 2374.21 59.01 C 2376.57 60.08 2380.18 60.97 2382.23 60.98 C 2384.28 60.99 2387.43 61.90 2389.23 63.00 C 2391.03 64.09 2393.31 64.99 2394.30 65.00 C 2395.29 65.00 2397.88 65.90 2400.05 67.00 C 2402.22 68.10 2405.78 69.90 2407.95 71.00 C 2410.12 72.10 2412.48 73.00 2413.20 73.01 C 2413.91 73.01 2417.43 75.31 2421.00 78.11 C 2424.57 80.91 2429.07 84.23 2431.00 85.49 C 2436.31 88.95 2452.86 105.81 2454.96 109.90 C 2455.98 111.88 2458.21 114.82 2459.91 116.44 C 2461.61 118.05 2463.00 120.13 2463.00 121.05 C 2463.00 121.98 2463.90 123.87 2465.00 125.27 C 2466.10 126.67 2467.00 128.69 2467.00 129.75 C 2467.00 130.82 2467.90 132.50 2469.00 133.50 C 2470.10 134.50 2471.00 136.08 2471.00 137.02 C 2471.00 137.96 2471.90 139.87 2473.00 141.27 C 2474.10 142.67 2475.00 144.64 2475.01 145.66 C 2475.01 146.67 2475.91 148.85 2477.00 150.50 C 2478.09 152.15 2479.01 155.07 2479.03 157.00 C 2479.05 158.93 2479.94 162.30 2481.00 164.50 C 2482.19 166.96 2482.95 170.68 2482.97 174.14 C 2482.98 177.24 2483.90 184.15 2485.00 189.50 L 2487.00 199.22 L 2487.00 213.90 C 2487.00 223.71 2486.50 230.49 2485.50 234.33 C 2484.68 237.49 2483.72 244.67 2483.36 250.29 C 2482.93 257.17 2482.11 261.71 2480.86 264.21 C 2479.68 266.57 2479.00 270.07 2479.00 273.81 L 2479.00 279.69 L 2477.00 282.00 C 2475.90 283.27 2475.00 285.16 2475.00 286.19 C 2475.00 287.23 2474.10 289.84 2473.00 292.00 C 2471.90 294.16 2471.00 296.65 2471.00 297.55 C 2471.00 298.45 2470.10 300.33 2469.00 301.73 C 2467.90 303.13 2467.00 305.17 2467.00 306.26 C 2467.00 308.34 2461.58 318.52 2459.94 319.54 C 2459.42 319.86 2459.00 320.90 2459.00 321.86 C 2459.00 322.82 2457.42 325.33 2455.49 327.44 C 2453.57 329.54 2451.65 332.44 2451.24 333.88 C 2450.48 336.56 2424.12 363.00 2422.22 363.00 C 2421.64 363.00 2417.70 365.36 2413.46 368.25 C 2402.23 375.89 2396.83 378.86 2393.97 378.93 C 2392.58 378.97 2390.38 379.74 2389.08 380.66 C 2387.78 381.57 2384.68 382.69 2382.19 383.16 C 2379.69 383.62 2376.94 384.62 2376.08 385.37 C 2374.62 386.63 2349.36 388.38 2333.50 388.31 C 2273.85 388.05 2231.90 388.07 2229.52 388.36 C 2227.86 388.56 2221.27 388.44 2214.87 388.09 Z M 147.12 387.00 C 143.57 386.16 142.04 384.61 142.02 381.82 C 141.99 378.91 144.81 377.17 150.75 376.44 C 153.91 376.06 157.72 375.13 159.20 374.37 C 160.69 373.62 163.08 373.00 164.53 373.00 C 167.64 373.00 173.00 368.07 173.00 365.20 C 173.00 364.12 173.66 362.69 174.47 362.02 C 175.28 361.35 176.22 359.16 176.55 357.15 C 176.88 355.14 178.03 351.37 179.09 348.77 L 181.03 344.05 L 180.77 206.61 C 180.62 131.01 180.12 68.79 179.66 68.33 C 178.20 66.87 143.09 67.94 139.20 69.56 C 137.31 70.35 133.65 71.00 131.07 71.00 C 128.46 71.00 125.52 71.66 124.44 72.48 C 123.37 73.30 120.89 74.42 118.92 74.98 C 114.92 76.10 104.81 85.05 102.19 89.78 C 96.29 100.42 95.00 103.18 94.99 105.22 C 94.99 106.47 94.09 108.85 93.00 110.50 L 91.01 113.50 L 91.01 120.18 C 91.00 123.86 90.49 128.14 89.87 129.68 C 89.24 131.23 88.15 136.55 87.44 141.49 L 86.15 150.48 L 83.52 152.74 C 80.27 155.53 77.61 155.61 75.00 153.00 C 72.59 150.59 72.49 148.46 74.57 143.49 L 76.13 139.74 L 77.01 118.62 C 77.58 105.03 78.44 95.55 79.44 92.03 C 80.42 88.61 81.00 82.52 81.00 75.73 C 81.00 60.01 82.40 57.92 94.20 55.92 C 105.55 54.00 110.28 53.77 114.21 54.94 C 118.00 56.08 131.35 56.23 205.25 55.98 C 221.06 55.92 236.30 55.52 239.11 55.07 C 242.02 54.61 246.01 54.67 248.36 55.21 C 250.65 55.73 268.81 56.06 289.00 55.95 C 309.07 55.84 327.75 55.74 330.50 55.73 C 341.70 55.70 355.52 57.27 357.25 58.78 L 359.00 60.31 L 359.00 69.53 L 359.00 78.75 L 360.89 83.12 L 362.77 87.50 L 363.30 108.00 L 363.83 128.50 L 365.42 132.22 C 366.42 134.57 367.00 138.87 367.00 143.94 L 367.00 151.95 L 364.50 153.59 L 362.00 155.23 L 359.50 153.59 C 358.12 152.69 357.00 151.23 357.00 150.34 C 357.00 149.46 356.16 147.33 355.13 145.62 C 353.91 143.60 353.02 139.55 352.59 134.14 C 352.23 129.54 351.27 124.50 350.47 122.94 C 349.66 121.38 349.00 117.71 348.99 114.80 C 348.99 111.19 348.35 108.54 347.00 106.50 C 345.91 104.85 345.01 102.54 345.01 101.37 C 345.00 100.20 344.37 98.72 343.60 98.08 C 342.83 97.44 341.89 95.72 341.53 94.25 C 340.53 90.29 326.39 76.24 322.60 75.44 C 320.89 75.08 318.10 73.93 316.38 72.89 C 314.67 71.85 311.74 70.98 309.88 70.96 C 308.02 70.95 305.38 70.29 304.00 69.50 L 301.50 68.07 L 282.25 68.04 L 263.00 68.00 L 263.00 70.25 C 263.00 71.49 262.98 129.88 262.95 200.00 C 262.93 270.12 262.93 332.94 262.95 339.60 L 263.00 351.69 L 265.00 354.00 C 266.10 355.27 267.00 357.29 267.00 358.50 C 267.00 359.70 267.90 361.50 269.00 362.50 C 270.10 363.50 271.00 365.00 271.00 365.85 C 271.00 368.80 276.14 373.00 279.74 373.00 C 281.59 373.00 284.33 373.64 285.83 374.41 C 287.34 375.19 290.27 376.15 292.34 376.54 C 294.68 376.98 296.71 378.15 297.67 379.62 L 299.23 382.00 L 297.68 384.36 C 296.83 385.66 294.70 387.01 292.94 387.36 C 288.31 388.29 151.13 387.94 147.12 387.00 Z M 378.73 387.32 C 377.20 387.07 375.24 385.77 374.36 384.43 L 372.77 382.00 L 374.35 379.59 C 375.42 377.96 377.29 376.96 380.21 376.47 C 382.57 376.07 385.39 375.13 386.47 374.37 C 387.56 373.62 390.03 373.00 391.97 373.00 C 398.11 372.99 405.00 366.95 405.00 361.58 C 405.00 360.75 405.90 358.33 407.01 356.21 L 409.01 352.36 L 409.26 222.28 L 409.50 92.21 L 407.76 90.29 C 406.80 89.23 405.57 85.92 405.02 82.93 L 404.01 77.50 L 400.26 74.26 C 398.19 72.49 395.57 71.02 394.44 71.01 C 393.31 71.01 391.51 70.34 390.44 69.53 C 389.37 68.72 387.38 68.05 386.00 68.03 C 381.25 67.96 376.13 65.98 375.49 63.97 C 373.55 57.87 378.70 55.80 395.39 55.96 C 401.50 56.02 417.52 56.09 431.00 56.13 C 444.48 56.16 471.25 56.26 490.50 56.34 L 525.50 56.50 L 527.75 57.79 C 529.27 58.65 530.00 60.01 530.00 61.98 C 530.00 65.52 529.18 66.06 521.52 67.64 C 508.68 70.28 499.00 75.99 499.00 80.91 C 499.00 81.91 498.10 83.87 497.00 85.27 C 495.67 86.96 495.00 89.33 495.00 92.30 C 495.00 94.77 494.08 99.77 492.96 103.41 L 490.91 110.03 L 491.21 158.43 C 491.37 185.05 491.88 207.21 492.33 207.67 C 492.79 208.13 516.42 208.39 544.83 208.27 L 596.50 208.03 L 596.50 150.12 L 596.50 92.21 L 594.75 90.28 C 593.79 89.21 593.00 87.53 593.00 86.53 C 593.00 80.98 585.48 71.09 581.21 71.03 C 579.95 71.01 577.16 70.10 575.00 69.00 C 572.84 67.90 569.91 67.00 568.47 67.00 C 562.18 67.00 559.26 60.63 564.25 57.79 L 566.50 56.50 L 636.50 56.34 C 675.00 56.25 708.00 56.42 709.83 56.71 C 713.95 57.38 715.88 60.76 714.23 64.40 L 713.13 66.80 L 708.82 67.53 C 706.44 67.92 703.61 68.87 702.53 69.63 C 701.44 70.38 699.60 71.00 698.43 71.00 C 693.30 71.00 683.00 82.28 683.00 87.89 C 683.00 89.01 682.10 92.21 681.00 95.00 L 679.00 100.07 L 679.00 223.29 L 679.01 346.50 L 681.00 349.77 C 682.10 351.57 683.00 354.09 683.00 355.36 C 683.00 358.59 688.70 369.68 691.30 371.50 C 692.48 372.32 694.71 373.00 696.26 373.00 C 697.80 373.00 700.07 373.63 701.29 374.39 C 702.50 375.16 705.66 376.09 708.30 376.46 L 713.11 377.14 L 714.21 379.57 L 715.32 382.00 L 714.21 384.43 L 713.11 386.86 L 708.80 387.41 C 701.91 388.30 566.68 387.59 564.79 386.66 C 560.81 384.70 561.51 378.35 565.82 377.43 C 567.29 377.12 570.90 375.99 573.84 374.93 C 576.78 373.87 580.20 373.00 581.45 373.00 C 585.88 373.00 593.00 364.59 593.00 359.36 C 593.00 358.41 593.91 355.75 595.03 353.45 L 597.05 349.26 L 596.78 284.61 L 596.50 219.96 L 546.33 219.81 L 496.17 219.66 L 493.63 221.32 L 491.09 222.99 L 491.04 281.24 L 490.99 339.50 L 492.50 342.38 C 493.33 343.96 494.30 347.67 494.64 350.63 C 495.00 353.66 496.09 356.95 497.14 358.16 C 498.16 359.34 499.00 361.37 499.00 362.67 C 499.00 366.27 504.86 372.04 509.53 373.03 C 522.48 375.79 530.00 379.09 530.00 382.00 C 530.00 383.80 527.03 386.20 523.97 386.88 C 520.30 387.68 383.47 388.10 378.73 387.32 Z M 727.41 387.05 C 722.84 385.97 722.00 385.18 722.00 381.98 C 722.00 378.60 723.79 377.37 730.12 376.38 C 732.53 376.01 735.39 375.10 736.47 374.35 C 737.56 373.61 740.00 373.00 741.91 373.00 C 746.93 373.00 751.84 369.33 752.62 365.00 C 752.96 363.07 754.09 360.10 755.12 358.38 C 756.25 356.51 757.00 353.39 757.00 350.58 C 757.00 348.01 757.73 344.49 758.62 342.77 L 760.24 339.63 L 760.08 328.07 C 759.99 321.71 759.82 269.25 759.71 211.50 L 759.50 106.50 L 758.25 103.68 C 757.56 102.14 757.00 97.95 757.00 94.37 L 757.00 87.88 L 754.51 82.61 C 751.69 76.66 745.40 71.00 741.59 71.00 C 740.20 71.00 737.59 70.35 735.78 69.55 C 733.98 68.76 730.34 67.83 727.70 67.48 L 722.89 66.86 L 721.79 64.43 L 720.68 62.00 L 721.77 59.60 C 723.16 56.55 726.46 56.04 743.50 56.21 C 751.05 56.29 758.68 55.82 761.71 55.08 L 766.92 53.82 L 770.21 54.90 C 772.34 55.61 781.09 55.84 795.00 55.57 C 822.04 55.04 819.67 55.03 874.50 55.63 C 902.20 55.93 926.07 55.71 934.50 55.08 L 948.50 54.03 L 960.30 55.41 L 972.11 56.79 L 974.16 58.64 C 978.25 62.35 979.00 65.36 979.02 78.20 L 979.05 90.50 L 981.02 97.93 C 982.37 103.01 983.00 108.58 983.00 115.52 C 983.00 121.77 983.58 127.57 984.52 130.59 C 985.35 133.29 986.32 138.99 986.66 143.26 L 987.30 151.01 L 985.49 153.01 C 983.18 155.56 977.64 155.64 975.15 153.15 L 973.31 151.31 L 972.75 141.40 C 972.40 135.29 971.58 130.35 970.60 128.50 C 969.66 126.73 969.01 123.04 969.01 119.49 C 969.00 115.39 968.36 112.28 967.00 109.74 C 965.90 107.69 965.00 105.07 965.00 103.93 C 965.00 101.80 962.13 96.32 956.34 87.43 C 953.14 82.51 943.84 75.01 940.93 74.99 C 940.14 74.99 938.15 74.09 936.50 73.00 C 934.60 71.74 931.81 71.01 928.87 71.01 C 926.33 71.00 922.62 70.32 920.63 69.49 L 917.01 67.98 L 879.33 68.24 L 841.64 68.50 L 840.84 71.50 C 840.40 73.15 840.14 104.07 840.27 140.20 L 840.50 205.90 L 841.75 207.15 L 842.99 208.39 L 859.36 208.29 L 875.73 208.19 L 878.82 206.59 C 880.51 205.72 883.79 205.00 886.10 205.00 L 890.29 205.00 L 897.15 200.77 C 900.93 198.44 904.30 195.62 904.64 194.52 C 904.99 193.41 906.11 191.43 907.14 190.12 C 908.16 188.80 909.00 186.88 909.00 185.83 C 909.00 184.78 909.64 182.93 910.42 181.71 C 911.20 180.50 912.16 177.25 912.55 174.50 C 913.55 167.39 914.50 166.00 918.36 166.00 C 920.60 166.00 922.42 166.82 924.08 168.58 L 926.50 171.16 L 926.85 205.33 C 927.04 224.12 926.88 243.73 926.49 248.90 L 925.79 258.30 L 923.44 260.65 C 918.69 265.40 913.64 262.84 912.39 255.03 C 912.00 252.60 911.08 249.47 910.35 248.06 C 909.61 246.65 908.99 244.15 908.97 242.50 C 908.90 237.95 897.96 227.00 893.47 227.00 C 892.56 227.00 890.67 226.10 889.27 225.00 L 886.73 223.00 L 879.99 223.00 C 876.28 223.00 871.34 222.33 869.00 221.50 C 863.56 219.58 843.74 219.40 842.23 221.25 C 841.66 221.94 841.05 226.10 840.85 230.50 C 840.21 245.09 840.57 372.47 841.26 374.25 L 841.94 376.00 L 876.90 376.00 C 898.81 376.00 912.90 375.61 914.62 374.95 C 916.13 374.38 921.00 373.67 925.43 373.38 L 933.50 372.85 L 940.78 369.28 C 952.46 363.53 965.00 348.16 965.00 339.59 C 965.00 338.19 965.90 335.57 967.00 333.77 C 968.20 331.79 969.00 328.72 969.00 326.00 C 969.01 323.52 969.66 320.25 970.46 318.72 C 971.26 317.19 972.22 311.41 972.61 305.87 L 973.30 295.80 L 975.69 292.95 C 978.84 289.21 981.51 288.45 984.55 290.44 L 987.00 292.05 L 987.00 298.90 C 987.00 302.67 986.29 307.72 985.41 310.12 C 984.48 312.70 983.51 320.06 983.07 328.00 C 982.65 335.43 981.73 342.85 981.01 344.50 C 980.20 346.39 979.54 353.93 979.23 364.84 L 978.74 382.19 L 976.46 384.84 L 974.17 387.50 L 852.34 387.64 C 785.33 387.72 729.11 387.45 727.41 387.05 Z M 1242.57 385.43 C 1241.71 384.56 1241.00 383.06 1241.00 382.08 C 1241.00 381.11 1240.10 379.50 1239.00 378.50 C 1237.90 377.50 1237.00 375.73 1237.00 374.57 C 1237.00 373.40 1236.37 371.54 1235.60 370.44 C 1234.83 369.34 1233.66 366.44 1233.00 364.00 C 1232.34 361.56 1231.17 358.66 1230.40 357.56 C 1229.63 356.46 1229.00 354.14 1229.00 352.41 C 1229.00 350.68 1228.10 348.13 1227.00 346.73 C 1225.90 345.33 1225.00 343.30 1225.00 342.23 C 1225.00 341.15 1224.10 339.13 1223.00 337.73 C 1221.90 336.33 1221.00 334.26 1221.00 333.12 C 1221.00 331.22 1220.14 329.03 1214.86 317.39 C 1213.84 315.13 1213.00 312.74 1213.00 312.09 C 1213.00 311.43 1212.15 309.23 1211.11 307.20 C 1209.37 303.79 1208.67 301.98 1205.80 293.50 C 1205.24 291.85 1203.93 288.84 1202.89 286.80 C 1201.85 284.77 1201.00 282.29 1200.99 281.30 C 1200.99 280.31 1200.09 278.15 1199.00 276.50 C 1197.91 274.85 1197.01 272.69 1197.01 271.71 C 1197.00 270.73 1196.10 268.16 1195.00 266.00 C 1193.90 263.84 1193.00 261.10 1193.00 259.90 C 1193.00 258.70 1192.10 255.76 1191.00 253.36 C 1189.90 250.96 1188.10 247.04 1187.00 244.64 C 1185.90 242.24 1185.00 239.65 1185.00 238.88 C 1185.00 238.10 1184.10 235.79 1183.00 233.74 C 1181.90 231.69 1181.00 228.98 1181.00 227.73 C 1181.00 226.47 1180.39 224.56 1179.64 223.47 C 1178.34 221.59 1172.04 206.87 1169.81 200.50 C 1169.23 198.85 1167.96 195.70 1167.00 193.50 C 1166.04 191.30 1164.69 187.93 1164.02 186.00 C 1163.34 184.07 1162.15 180.70 1161.38 178.50 C 1160.61 176.30 1159.30 173.31 1158.49 171.85 C 1157.67 170.39 1157.00 168.41 1157.00 167.46 C 1157.00 165.74 1154.60 159.97 1150.91 152.80 C 1149.86 150.77 1149.00 148.24 1149.00 147.19 C 1149.00 146.13 1148.10 144.13 1147.00 142.73 C 1145.90 141.33 1145.00 138.91 1144.99 137.34 C 1144.99 135.78 1144.09 133.15 1143.00 131.50 C 1141.91 129.85 1141.01 127.56 1141.01 126.40 C 1141.00 125.25 1140.10 123.27 1139.00 122.00 C 1137.90 120.73 1137.00 118.59 1137.00 117.23 C 1137.00 115.88 1136.15 113.14 1135.12 111.14 C 1134.09 109.14 1132.74 106.38 1132.13 105.00 C 1131.52 103.62 1130.63 101.83 1130.15 101.00 C 1129.68 100.17 1128.36 97.47 1127.23 95.00 C 1126.09 92.53 1124.01 88.03 1122.61 85.00 C 1119.70 78.71 1109.91 68.25 1106.07 67.34 C 1104.66 67.00 1102.94 66.28 1102.25 65.74 C 1100.54 64.40 1100.67 59.52 1102.45 58.04 C 1104.43 56.40 1119.47 54.80 1131.00 55.01 C 1151.08 55.37 1156.80 55.39 1166.00 55.09 C 1180.05 54.63 1241.17 55.70 1247.03 56.50 L 1252.08 57.20 L 1253.66 59.60 L 1255.23 62.00 L 1253.67 64.38 L 1252.11 66.76 L 1245.80 67.82 C 1233.17 69.93 1223.00 74.33 1223.00 77.67 C 1223.00 78.50 1222.10 80.33 1221.00 81.73 L 1219.00 84.27 L 1219.00 92.64 L 1219.00 101.01 L 1221.00 104.74 C 1222.10 106.79 1223.00 109.60 1223.01 110.99 C 1223.01 112.37 1223.91 114.85 1225.00 116.50 C 1226.09 118.15 1226.99 120.44 1226.99 121.60 C 1227.00 122.75 1227.90 124.50 1229.00 125.50 C 1230.18 126.57 1231.00 128.58 1231.00 130.42 C 1231.00 132.13 1231.90 135.21 1233.00 137.26 C 1234.10 139.31 1235.00 141.79 1235.00 142.76 C 1235.00 143.73 1235.90 146.21 1237.00 148.26 C 1238.10 150.31 1239.00 152.83 1239.00 153.84 C 1239.00 154.86 1239.90 156.73 1241.00 158.00 C 1242.10 159.27 1243.00 161.25 1243.01 162.40 C 1243.01 163.56 1243.91 165.85 1245.00 167.50 C 1246.09 169.15 1246.99 171.62 1247.00 173.00 C 1247.01 174.38 1247.91 176.85 1249.00 178.50 C 1250.09 180.15 1250.99 182.40 1251.00 183.50 C 1251.00 184.60 1251.91 186.97 1253.00 188.77 C 1254.10 190.57 1255.00 192.93 1255.00 194.00 C 1255.00 195.07 1255.90 197.43 1257.00 199.23 C 1258.09 201.03 1259.00 203.40 1259.00 204.50 C 1259.01 205.60 1259.91 207.85 1261.00 209.50 C 1262.09 211.15 1262.99 213.40 1263.00 214.50 C 1263.01 215.60 1263.91 217.85 1265.00 219.50 C 1266.09 221.15 1266.99 223.68 1266.99 225.12 C 1267.00 226.55 1267.90 228.87 1269.00 230.27 C 1270.10 231.67 1271.00 233.78 1271.00 234.96 C 1271.00 236.14 1271.90 238.88 1273.00 241.05 C 1274.10 243.22 1275.90 246.78 1277.00 248.95 C 1278.10 251.12 1279.00 253.71 1279.01 254.70 C 1279.01 255.69 1279.91 257.85 1281.00 259.50 C 1282.09 261.15 1282.99 263.74 1282.99 265.25 C 1283.00 266.98 1283.54 268.00 1284.44 268.00 C 1286.17 268.00 1289.00 264.22 1289.00 261.90 C 1289.00 260.99 1289.63 259.73 1290.39 259.09 C 1291.16 258.46 1292.10 255.83 1292.48 253.26 C 1292.87 250.68 1294.04 247.49 1295.09 246.15 C 1296.14 244.82 1297.00 242.99 1297.00 242.09 C 1297.00 241.18 1297.61 239.56 1298.36 238.47 C 1299.11 237.39 1300.04 234.73 1300.44 232.56 C 1300.84 230.39 1301.98 227.01 1302.99 225.06 C 1306.76 217.71 1309.00 212.22 1309.00 210.33 C 1309.00 209.26 1309.66 207.51 1310.47 206.44 C 1311.28 205.37 1311.95 203.82 1311.98 203.00 C 1312.00 202.18 1313.13 199.25 1314.48 196.50 C 1315.83 193.75 1316.95 190.81 1316.97 189.97 C 1316.99 189.13 1317.62 187.56 1318.37 186.47 C 1319.13 185.39 1320.09 182.93 1320.51 181.00 C 1320.92 179.07 1322.11 175.93 1323.13 174.01 C 1324.16 172.10 1325.00 169.75 1325.00 168.79 C 1325.00 167.83 1325.90 165.57 1327.00 163.77 C 1328.09 161.97 1328.99 159.64 1329.00 158.58 C 1329.00 157.52 1329.67 155.91 1330.50 155.00 C 1331.32 154.09 1332.39 151.25 1332.87 148.68 C 1333.35 146.12 1334.34 143.30 1335.07 142.42 C 1337.08 140.00 1337.07 133.00 1335.06 128.50 C 1334.08 126.30 1332.31 122.35 1331.14 119.72 C 1329.96 117.10 1328.99 114.40 1328.98 113.72 C 1328.97 113.05 1328.08 111.38 1327.00 110.00 C 1325.92 108.62 1325.03 106.77 1325.02 105.88 C 1325.01 105.00 1324.10 103.13 1323.00 101.73 C 1321.90 100.33 1321.00 98.53 1321.00 97.73 C 1321.00 96.93 1320.17 95.20 1319.14 93.88 C 1318.12 92.57 1316.99 89.87 1316.62 87.88 C 1315.62 82.44 1305.72 71.13 1299.21 68.00 C 1293.86 65.42 1292.41 63.43 1293.48 60.06 C 1295.10 54.96 1306.22 54.17 1367.50 54.82 C 1384.00 54.99 1400.88 55.10 1405.00 55.06 C 1409.12 55.02 1419.34 55.35 1427.69 55.78 L 1442.88 56.58 L 1444.94 58.45 C 1449.47 62.54 1446.45 66.37 1437.49 67.91 C 1422.98 70.39 1417.84 73.45 1413.81 81.96 L 1410.76 88.43 L 1411.26 94.62 C 1411.53 98.03 1412.48 101.85 1413.38 103.13 C 1414.27 104.40 1415.00 106.58 1415.01 107.97 C 1415.01 109.36 1415.91 111.85 1417.00 113.50 C 1418.09 115.15 1418.99 117.62 1419.00 119.00 C 1419.01 120.38 1419.91 122.85 1421.00 124.50 C 1422.09 126.15 1422.99 128.40 1423.00 129.50 C 1423.01 130.60 1423.91 132.85 1425.00 134.50 C 1426.09 136.15 1426.99 138.62 1427.00 140.00 C 1427.01 141.38 1427.91 143.85 1429.00 145.50 C 1430.09 147.15 1430.99 149.40 1431.00 150.50 C 1431.01 151.60 1431.91 153.85 1433.00 155.50 C 1434.09 157.15 1434.99 159.40 1435.00 160.50 C 1435.01 161.60 1435.91 163.85 1437.00 165.50 C 1438.09 167.15 1438.99 169.41 1438.99 170.51 C 1439.00 171.62 1439.90 174.21 1441.00 176.26 C 1442.10 178.31 1443.00 180.83 1443.00 181.86 C 1443.00 182.89 1443.90 184.87 1445.00 186.27 C 1446.10 187.67 1447.00 189.87 1447.01 191.16 C 1447.01 192.45 1447.91 194.85 1449.00 196.50 C 1450.09 198.15 1450.99 200.65 1450.99 202.05 C 1451.00 203.45 1451.50 205.10 1452.12 205.72 C 1453.67 207.27 1458.10 217.85 1458.73 221.50 C 1459.01 223.15 1459.86 225.20 1460.61 226.07 C 1461.36 226.93 1462.23 229.18 1462.54 231.07 C 1463.09 234.36 1465.08 239.24 1469.12 247.20 C 1470.15 249.23 1471.00 251.98 1471.00 253.30 C 1471.00 254.61 1471.90 256.73 1473.00 258.00 C 1474.10 259.27 1475.00 261.17 1475.00 262.22 C 1475.00 264.89 1476.82 268.00 1478.39 268.00 C 1479.11 268.00 1480.94 264.96 1482.45 261.25 C 1483.97 257.54 1486.06 252.39 1487.10 249.81 C 1488.15 247.24 1489.00 244.40 1489.00 243.51 C 1489.00 242.62 1489.86 240.23 1490.91 238.20 C 1494.68 230.88 1497.00 225.25 1497.01 223.39 C 1497.01 222.35 1497.91 220.15 1499.00 218.50 C 1500.09 216.85 1500.99 214.59 1500.99 213.47 C 1501.00 212.36 1501.62 210.56 1502.37 209.47 C 1503.13 208.39 1504.07 205.61 1504.45 203.31 C 1504.84 201.00 1505.76 198.61 1506.50 198.00 C 1507.24 197.39 1508.16 195.00 1508.54 192.69 C 1508.93 190.39 1510.71 185.57 1512.50 182.00 C 1514.29 178.43 1516.07 173.61 1516.46 171.31 C 1516.84 169.00 1517.80 166.58 1518.58 165.94 C 1519.36 165.29 1520.00 164.02 1520.01 163.13 C 1520.01 162.23 1521.13 159.25 1522.48 156.50 C 1523.83 153.75 1524.95 150.71 1524.97 149.75 C 1524.99 148.78 1525.90 146.31 1527.00 144.26 C 1528.10 142.21 1529.00 139.96 1529.00 139.26 C 1529.00 138.56 1529.90 136.31 1531.00 134.26 C 1532.10 132.21 1533.00 129.49 1533.00 128.22 C 1533.00 126.96 1534.80 122.25 1537.00 117.76 L 1541.00 109.60 L 1541.00 97.23 L 1541.00 84.86 L 1538.43 80.46 C 1535.18 74.93 1531.83 72.87 1519.75 68.98 L 1510.09 65.87 L 1509.48 63.93 C 1508.37 60.44 1509.92 58.10 1514.08 56.98 C 1518.40 55.82 1593.12 55.52 1600.11 56.63 C 1602.77 57.06 1604.66 58.08 1605.68 59.64 L 1607.23 62.00 L 1605.69 64.35 L 1604.15 66.70 L 1598.33 67.73 C 1593.38 68.61 1589.44 69.74 1584.50 71.70 C 1579.96 73.50 1574.83 77.50 1571.19 82.06 C 1568.82 85.05 1566.01 88.45 1564.96 89.61 C 1563.91 90.77 1562.59 92.80 1562.03 94.11 C 1561.47 95.43 1560.59 97.17 1560.08 98.00 C 1558.05 101.31 1555.00 108.14 1555.00 109.40 C 1555.00 110.13 1554.10 111.87 1553.00 113.27 C 1551.90 114.67 1551.00 116.69 1551.00 117.75 C 1551.00 118.82 1550.10 120.73 1549.00 122.00 C 1547.90 123.27 1547.00 125.36 1547.00 126.66 C 1547.00 127.95 1546.10 130.69 1545.00 132.74 C 1543.90 134.79 1543.00 137.04 1543.00 137.74 C 1543.00 138.44 1542.10 140.69 1541.00 142.74 C 1539.90 144.79 1539.00 147.10 1539.00 147.88 C 1539.00 148.65 1538.05 151.36 1536.89 153.89 C 1532.31 163.90 1530.40 169.06 1527.48 179.25 C 1526.73 181.86 1525.41 185.00 1524.56 186.22 C 1523.70 187.45 1523.00 189.13 1523.00 189.97 C 1522.99 191.48 1518.91 200.15 1517.16 202.36 C 1516.66 202.99 1515.94 205.25 1515.56 207.40 C 1515.17 209.54 1514.26 212.24 1513.52 213.40 C 1512.79 214.55 1511.88 217.42 1511.50 219.77 C 1511.13 222.12 1510.16 224.70 1509.35 225.51 C 1508.54 226.32 1507.61 228.67 1507.28 230.74 C 1506.96 232.81 1505.86 236.07 1504.85 237.99 C 1503.83 239.90 1503.00 242.16 1503.00 243.01 C 1503.00 243.86 1502.39 245.44 1501.63 246.53 C 1500.88 247.61 1499.94 249.62 1499.54 251.00 C 1498.44 254.81 1494.31 265.17 1492.57 268.52 C 1491.71 270.16 1491.01 272.53 1491.01 273.79 C 1491.00 275.05 1490.10 277.84 1489.00 280.00 C 1487.90 282.16 1487.00 284.99 1487.00 286.31 C 1487.00 287.62 1486.10 289.50 1485.00 290.50 C 1483.79 291.59 1483.00 293.58 1483.00 295.52 C 1483.00 297.29 1482.10 299.87 1481.00 301.27 C 1479.90 302.67 1479.00 304.53 1479.00 305.41 C 1479.00 306.29 1478.10 308.69 1477.00 310.74 C 1475.90 312.79 1475.00 315.87 1475.00 317.58 C 1475.00 319.42 1474.18 321.43 1473.00 322.50 C 1471.82 323.56 1471.00 325.59 1470.99 327.40 C 1470.99 329.11 1470.09 331.85 1469.00 333.50 C 1467.91 335.15 1467.01 337.40 1467.00 338.50 C 1466.99 339.60 1466.09 341.85 1465.00 343.50 C 1463.91 345.15 1463.01 347.55 1463.01 348.84 C 1463.00 350.13 1462.10 352.33 1461.00 353.73 C 1459.90 355.13 1459.00 357.22 1458.99 358.38 C 1458.99 359.55 1458.09 361.85 1457.00 363.50 C 1455.91 365.15 1455.01 367.45 1455.01 368.61 C 1455.00 371.96 1449.27 383.70 1446.80 385.43 C 1442.05 388.75 1433.00 386.24 1433.00 381.60 C 1433.00 380.83 1431.20 376.28 1429.00 371.50 C 1426.80 366.72 1425.00 362.06 1424.99 361.15 C 1424.99 360.24 1424.09 358.15 1423.00 356.50 C 1421.91 354.85 1421.01 352.32 1421.01 350.88 C 1421.00 349.45 1420.10 347.13 1419.00 345.73 C 1417.90 344.33 1417.00 342.13 1417.00 340.84 C 1416.99 339.55 1416.09 337.03 1415.00 335.23 C 1413.90 333.43 1413.00 331.27 1413.00 330.44 C 1413.00 329.60 1412.10 327.16 1411.00 325.00 C 1409.90 322.84 1409.00 320.22 1409.00 319.17 C 1409.00 318.13 1408.10 316.13 1407.00 314.73 C 1405.90 313.33 1405.00 311.35 1405.00 310.33 C 1405.00 309.31 1404.10 306.79 1403.00 304.74 C 1401.90 302.69 1401.00 299.99 1400.99 298.75 C 1400.99 297.51 1400.09 295.15 1399.00 293.50 C 1397.91 291.85 1397.01 289.60 1397.00 288.50 C 1397.00 287.40 1396.09 285.03 1395.00 283.23 C 1393.90 281.43 1393.00 279.23 1393.00 278.34 C 1393.00 277.46 1392.15 275.33 1391.12 273.62 C 1390.09 271.90 1388.95 268.86 1388.60 266.85 C 1388.24 264.84 1387.28 262.65 1386.47 261.98 C 1385.66 261.31 1385.00 259.80 1384.99 258.63 C 1384.99 257.46 1384.09 255.15 1383.00 253.50 C 1381.91 251.85 1381.01 249.47 1381.01 248.21 C 1381.00 246.95 1380.10 244.16 1379.00 242.00 C 1377.90 239.84 1377.00 237.27 1377.00 236.29 C 1376.99 235.31 1376.09 233.03 1375.00 231.23 C 1373.90 229.43 1373.00 227.18 1372.99 226.23 C 1372.99 225.28 1372.09 223.15 1371.00 221.50 C 1369.91 219.85 1369.01 217.32 1369.01 215.88 C 1369.00 214.45 1368.10 212.13 1367.00 210.73 C 1365.90 209.33 1365.00 207.58 1364.99 206.84 C 1364.99 206.10 1364.09 204.15 1363.00 202.50 C 1361.91 200.85 1361.01 198.59 1361.01 197.49 C 1361.00 196.38 1360.10 193.79 1359.00 191.74 C 1357.90 189.69 1357.00 187.44 1357.00 186.74 C 1357.00 186.04 1356.10 183.79 1355.00 181.74 C 1353.90 179.69 1353.00 177.21 1353.00 176.24 C 1353.00 175.27 1352.10 172.79 1351.00 170.74 C 1349.90 168.69 1348.99 166.22 1348.97 165.25 C 1348.95 164.29 1347.78 162.18 1346.36 160.57 L 1343.79 157.64 L 1342.14 158.67 C 1341.24 159.24 1339.96 161.83 1339.31 164.43 C 1338.65 167.03 1337.71 169.68 1337.21 170.33 C 1336.70 170.97 1335.80 173.30 1335.20 175.50 C 1333.38 182.15 1329.94 191.25 1328.42 193.41 C 1327.64 194.53 1327.00 196.44 1327.00 197.65 C 1327.00 198.86 1326.38 200.48 1325.62 201.24 C 1324.86 201.99 1323.90 204.16 1323.49 206.06 C 1323.07 207.95 1321.89 211.07 1320.87 212.99 C 1319.84 214.90 1319.00 217.43 1319.00 218.61 C 1319.00 219.79 1318.33 221.32 1317.50 222.00 C 1316.67 222.68 1316.00 224.20 1315.99 225.37 C 1315.99 226.54 1314.87 229.75 1313.52 232.50 C 1312.17 235.25 1311.05 238.23 1311.03 239.13 C 1311.01 240.02 1310.38 241.27 1309.63 241.89 C 1308.87 242.52 1308.01 244.54 1307.71 246.39 C 1307.41 248.23 1306.23 251.80 1305.08 254.32 C 1303.94 256.83 1303.00 259.63 1303.00 260.54 C 1303.00 261.45 1302.33 263.39 1301.51 264.85 C 1299.74 268.02 1297.20 274.99 1295.82 280.50 C 1295.26 282.70 1293.95 286.16 1292.91 288.20 C 1291.86 290.23 1291.00 292.97 1291.00 294.29 C 1291.00 295.61 1290.10 297.50 1289.00 298.50 C 1287.90 299.50 1287.00 301.48 1286.99 302.90 C 1286.99 304.33 1286.09 306.85 1285.00 308.50 C 1283.91 310.15 1283.01 312.62 1283.00 314.00 C 1282.99 315.38 1282.09 317.85 1281.00 319.50 C 1279.91 321.15 1279.01 323.89 1279.01 325.60 C 1279.00 327.41 1278.18 329.44 1277.00 330.50 C 1275.90 331.50 1275.00 333.37 1275.00 334.66 C 1275.00 335.95 1274.10 338.69 1273.00 340.74 C 1271.90 342.79 1271.00 345.31 1271.00 346.33 C 1271.00 347.35 1270.10 349.33 1269.00 350.73 C 1267.90 352.13 1267.00 354.50 1267.00 356.00 C 1267.00 357.50 1266.10 359.87 1265.00 361.27 C 1263.90 362.67 1263.00 364.93 1263.00 366.29 C 1263.00 367.64 1262.32 369.32 1261.49 370.01 C 1260.66 370.70 1259.70 373.04 1259.35 375.22 C 1258.79 378.72 1255.44 384.12 1252.52 386.23 C 1250.68 387.56 1244.18 387.03 1242.57 385.43 Z M 1742.17 374.34 C 1749.44 369.38 1761.00 356.34 1761.00 353.09 C 1761.00 352.11 1761.90 350.50 1763.00 349.50 C 1764.10 348.50 1765.00 346.82 1765.00 345.75 C 1765.00 344.69 1765.90 342.67 1767.00 341.27 C 1768.10 339.87 1769.00 338.00 1769.01 337.12 C 1769.01 336.23 1769.91 334.15 1771.00 332.50 C 1772.09 330.85 1772.99 328.38 1773.00 327.00 C 1773.01 325.62 1773.91 323.15 1775.00 321.50 C 1776.09 319.85 1776.99 317.14 1776.99 315.47 C 1777.00 313.81 1777.72 311.41 1778.61 310.15 C 1779.57 308.77 1780.52 304.40 1780.99 299.18 C 1781.42 294.40 1782.49 288.83 1783.38 286.78 C 1784.27 284.74 1785.00 280.45 1785.00 277.25 C 1785.00 274.05 1785.73 268.98 1786.62 265.97 L 1788.25 260.50 L 1788.71 223.10 L 1789.17 185.70 L 1787.18 179.60 C 1786.08 176.25 1784.97 169.63 1784.71 164.90 C 1784.43 159.73 1783.64 155.34 1782.74 153.90 C 1781.91 152.58 1780.99 148.06 1780.70 143.87 C 1780.41 139.67 1779.46 134.85 1778.59 133.17 C 1777.71 131.48 1777.00 128.87 1777.00 127.36 C 1777.00 125.86 1776.07 123.64 1774.94 122.44 C 1773.58 120.99 1772.86 118.85 1772.82 116.17 C 1772.79 113.51 1772.11 111.51 1770.88 110.39 C 1769.85 109.46 1769.00 107.92 1769.00 106.98 C 1769.00 106.04 1768.10 104.13 1767.00 102.73 C 1765.90 101.33 1765.00 99.40 1765.00 98.45 C 1765.00 97.49 1763.42 94.78 1761.50 92.43 C 1759.58 90.09 1758.00 87.85 1758.00 87.47 C 1758.00 85.34 1750.89 76.38 1745.75 72.03 L 1739.80 67.00 L 1736.37 67.00 C 1734.48 67.00 1731.79 66.25 1730.40 65.34 L 1727.88 63.69 L 1724.40 65.34 C 1722.49 66.25 1719.71 67.00 1718.22 67.00 L 1715.50 67.00 L 1705.25 77.45 C 1699.55 83.27 1695.00 88.75 1695.00 89.80 C 1695.00 90.84 1694.10 92.73 1693.00 94.00 C 1691.90 95.27 1691.00 97.14 1691.00 98.16 C 1691.00 99.18 1690.10 100.79 1689.00 101.73 C 1687.90 102.67 1687.00 104.18 1687.00 105.09 C 1687.00 105.99 1686.10 107.87 1685.00 109.27 C 1683.82 110.77 1683.00 113.33 1683.00 115.50 C 1683.00 117.67 1682.18 120.23 1681.00 121.73 C 1679.90 123.13 1679.00 125.45 1678.99 126.88 C 1678.99 128.32 1678.09 130.85 1677.00 132.50 C 1675.75 134.39 1675.01 137.19 1675.01 140.09 C 1675.00 142.62 1674.10 147.30 1673.00 150.50 C 1671.90 153.70 1671.00 157.83 1671.00 159.69 C 1671.00 161.55 1670.25 164.74 1669.32 166.78 L 1667.65 170.50 L 1666.80 193.50 C 1665.73 222.48 1665.73 218.29 1666.77 247.00 L 1667.65 271.50 L 1669.32 275.88 C 1670.25 278.28 1671.00 282.67 1671.00 285.63 C 1671.00 289.10 1671.71 292.33 1673.00 294.74 C 1674.15 296.88 1675.00 300.39 1675.01 302.99 C 1675.01 305.81 1675.76 308.62 1677.00 310.50 C 1678.09 312.15 1678.99 315.00 1678.99 316.84 C 1679.00 318.68 1679.90 321.33 1681.00 322.73 C 1682.12 324.16 1683.00 326.78 1683.00 328.73 C 1683.00 330.67 1683.88 333.30 1685.00 334.73 C 1686.10 336.13 1687.00 338.04 1687.00 338.98 C 1687.00 339.92 1687.90 341.50 1689.00 342.50 C 1690.10 343.50 1691.00 345.07 1691.00 346.00 C 1691.00 346.93 1691.90 348.50 1693.00 349.50 C 1694.10 350.50 1695.00 352.07 1695.00 353.00 C 1695.00 353.94 1696.46 356.63 1698.25 358.99 C 1700.04 361.35 1702.05 364.27 1702.73 365.49 C 1703.41 366.70 1706.78 369.65 1710.23 372.05 C 1717.29 376.94 1721.99 378.08 1732.00 377.33 L 1738.50 376.84 L 1742.17 374.34 Z M 2328.00 374.50 C 2330.34 373.68 2333.93 373.00 2335.99 373.00 C 2338.12 373.00 2340.76 372.20 2342.12 371.14 C 2343.43 370.11 2345.61 368.93 2346.96 368.50 C 2349.41 367.74 2377.00 341.25 2377.00 339.67 C 2377.00 339.21 2378.60 336.11 2380.55 332.77 C 2382.51 329.44 2384.38 325.31 2384.71 323.60 C 2385.04 321.90 2386.14 319.43 2387.16 318.12 C 2388.17 316.80 2389.00 314.81 2389.00 313.69 C 2389.00 312.57 2389.69 310.89 2390.54 309.95 C 2391.39 309.02 2392.33 306.50 2392.63 304.37 C 2392.93 302.24 2394.03 298.39 2395.08 295.81 C 2396.14 293.24 2397.00 289.28 2397.00 287.02 C 2397.00 284.77 2397.90 281.16 2399.00 279.00 L 2401.00 275.08 L 2401.00 267.28 L 2401.00 259.47 L 2403.00 255.74 L 2405.00 252.01 L 2404.99 216.25 L 2404.99 180.50 L 2403.00 177.50 L 2401.01 174.50 L 2401.00 168.00 L 2400.99 161.50 L 2399.00 158.50 C 2397.91 156.85 2397.01 153.88 2397.01 151.90 C 2397.00 149.75 2396.20 147.38 2395.00 146.00 C 2393.90 144.73 2393.00 142.53 2392.99 141.10 C 2392.99 139.67 2392.09 137.15 2391.00 135.50 C 2389.91 133.85 2389.01 131.56 2389.01 130.40 C 2389.00 129.25 2388.10 127.27 2387.00 126.00 C 2385.90 124.73 2385.00 123.05 2385.00 122.25 C 2385.00 121.46 2384.10 119.67 2383.00 118.27 C 2381.90 116.87 2381.00 115.05 2381.00 114.22 C 2381.00 113.39 2379.31 110.65 2377.25 108.14 C 2375.19 105.62 2372.91 102.43 2372.18 101.04 C 2371.46 99.65 2369.05 96.15 2366.83 93.27 C 2363.12 88.46 2360.52 85.89 2352.44 79.00 C 2349.05 76.11 2339.47 71.00 2337.44 71.00 C 2336.68 71.00 2334.33 70.10 2332.21 68.99 L 2328.36 66.99 L 2323.68 67.63 L 2319.00 68.27 L 2319.01 218.39 C 2319.02 300.95 2319.30 370.19 2319.64 372.25 C 2320.35 376.53 2321.42 376.82 2328.00 374.50 Z M 2019.50 248.53 C 2023.90 246.39 2029.53 243.06 2032.00 241.13 C 2040.20 234.72 2053.94 219.70 2056.52 214.31 C 2057.89 211.45 2059.45 208.84 2060.00 208.50 C 2060.55 208.16 2061.00 206.97 2061.00 205.85 C 2061.00 204.73 2061.90 202.67 2063.00 201.27 C 2064.10 199.87 2065.00 197.55 2065.01 196.12 C 2065.01 194.68 2065.91 192.15 2067.00 190.50 C 2068.09 188.85 2069.00 186.38 2069.01 185.00 C 2069.02 183.62 2069.92 179.65 2071.01 176.16 L 2073.00 169.82 L 2073.00 152.87 L 2073.00 135.92 L 2071.00 132.00 C 2069.90 129.84 2069.00 126.47 2069.00 124.50 C 2069.00 122.35 2067.40 117.66 2065.00 112.76 C 2062.80 108.27 2060.99 103.67 2060.98 102.55 C 2060.96 99.93 2048.43 84.91 2042.24 80.07 C 2037.77 76.59 2031.99 73.52 2022.25 69.47 L 2018.01 67.70 L 2007.28 67.60 L 1996.56 67.50 L 1995.84 71.50 C 1995.44 73.70 1995.09 115.48 1995.06 164.35 L 1995.00 253.21 L 2003.25 252.82 L 2011.50 252.43 L 2019.50 248.53 Z" fill="#ffffff" fill-rule="evenodd" stroke="#b9afb6" stroke-width="1.65" stroke-linejoin="round" style="paint-order:stroke fill" filter="url(#shadow)"/>
</svg>
